<svg width="178" height="32" viewBox="0 0 178 32" fill="none" xmlns="http://www.w3.org/2000/svg">
<g clip-path="url(#clip0_164_3414)">
<path d="M7.2313 5.68426V10.9891H11.1055C13.2537 10.9891 14.3242 10.1135 14.3242 8.35491C14.3242 7.52307 14.0621 6.87365 13.5305 6.41395C12.9989 5.93235 12.2269 5.68426 11.2147 5.68426H7.23858H7.2313ZM0 24.7875V0H12.2852C14.9796 0 17.208 0.634827 18.963 1.90448C20.7399 3.15225 21.6284 4.97646 21.6284 7.38443C21.6284 10.1791 20.2811 12.1931 17.5794 13.4189V13.5211C19.451 14.2362 20.6016 15.6007 21.0385 17.6146C21.2205 18.4027 21.3371 19.3805 21.388 20.5626C21.4317 21.7155 21.49 22.6276 21.5628 23.2989C21.6356 23.9702 21.7958 24.3423 22.0507 24.408V24.7875H14.9214C14.7175 24.6488 14.5791 24.2767 14.5063 23.6783C14.4407 23.0508 14.3679 22.27 14.3024 21.3214C14.2296 20.3729 14.1276 19.614 13.9892 19.0302C13.7562 18.0379 13.3921 17.3082 12.8823 16.8485C12.3726 16.3888 11.6152 16.1553 10.5957 16.1553H7.23858V24.7875H0Z" fill="white"/>
<path d="M32.2604 10.9233C30.5273 10.9233 29.4786 11.974 29.1145 14.0755H35.2025C35.0641 13.0831 34.7291 12.3097 34.1975 11.7551C33.6878 11.2006 33.0469 10.9233 32.2604 10.9233ZM32.3697 25.2689C29.5077 25.2689 27.1774 24.3933 25.3787 22.6347C23.6018 20.8762 22.7134 18.6361 22.7134 15.907C22.7134 13.178 23.5873 10.9598 25.3423 9.17932C27.0973 7.39888 29.3548 6.50867 32.1221 6.50867C34.7291 6.50867 36.8992 7.30403 38.6251 8.90204C40.7443 10.8649 41.7711 13.7472 41.7055 17.5342H29.1145C29.5296 19.7306 30.6802 20.8251 32.5736 20.8251C33.7242 20.8251 34.5471 20.3873 35.0277 19.5044H41.356C40.9628 21.1681 39.8486 22.591 37.9989 23.7658C36.455 24.7581 34.5762 25.2543 32.3624 25.2543" fill="white"/>
<path d="M52.9568 20.5552C53.9253 20.5552 54.6754 20.1757 55.207 19.4096C55.7386 18.6215 56.0008 17.5489 56.0008 16.1844C56.0008 14.8198 55.7386 13.7472 55.207 12.9591C54.6754 12.1711 53.9253 11.7843 52.9568 11.7843C51.9883 11.7843 51.1581 12.2003 50.5318 13.0321C49.9347 13.864 49.6288 14.9147 49.6288 16.1844C49.6288 17.454 49.9274 18.5266 50.5318 19.3366C51.1581 20.1466 51.9591 20.5479 52.9568 20.5479M43.3369 30.6467V7.10705H49.5633V9.18666H49.6652C51.027 7.42811 52.8621 6.55249 55.1633 6.55249C57.4645 6.55249 59.2924 7.4573 60.6323 9.25963C61.9722 11.0401 62.6422 13.2583 62.6422 15.9144C62.6422 18.8039 61.9358 21.1024 60.5304 22.8099C59.1249 24.5174 57.2461 25.3784 54.8939 25.3784C52.8403 25.3784 51.2018 24.6268 49.9783 23.1237H49.8764V30.6467H43.3369Z" fill="white"/>
<path d="M73.1795 20.9711C74.1698 20.9711 74.9199 20.5187 75.4297 19.6212C75.9613 18.7164 76.2234 17.5051 76.2234 15.98C76.2234 14.455 75.9613 13.2437 75.4297 12.3389C74.9199 11.4341 74.1698 10.989 73.1795 10.989C72.1891 10.989 71.4754 11.4414 70.9656 12.3389C70.4559 13.2145 70.2083 14.4331 70.2083 15.98C70.2083 17.527 70.4632 18.7528 70.9656 19.6576C71.4754 20.5333 72.2109 20.9784 73.1795 20.9784M80.236 22.7077C78.4809 24.4663 76.1506 25.3419 73.245 25.3419C70.3394 25.3419 67.9945 24.4663 66.2249 22.7077C64.448 20.9492 63.5596 18.7091 63.5596 15.98C63.5596 13.251 64.448 11.0109 66.2249 9.25232C68.0018 7.47188 70.3394 6.58167 73.245 6.58167C76.1506 6.58167 78.4809 7.47188 80.236 9.25232C81.991 11.0109 82.8649 13.251 82.8649 15.98C82.8649 18.7091 81.991 20.9492 80.236 22.7077Z" fill="white"/>
<path d="M90.7228 7.1071V9.77775H90.8248C92.1138 7.74193 93.9052 6.72766 96.1845 6.72766C96.6652 6.72766 97.0293 6.78604 97.255 6.90279V12.4849H97.1167C95.1796 12.1638 93.6794 12.4265 92.6162 13.2802C91.553 14.134 91.0214 15.5569 91.0214 17.5416V24.7874H84.4819V7.1071H90.7083H90.7228Z" fill="white"/>
<path d="M98.2236 11.0621V7.10722H100.51V1.38647H106.911V7.10722H110.268V11.0621H106.911V18.2349C106.911 18.7895 107.035 19.2054 107.29 19.4827C107.567 19.76 107.945 19.9132 108.433 19.9351C108.921 19.957 109.504 19.9497 110.196 19.8986V24.7146C109.045 24.9918 107.967 25.1305 106.977 25.1305C104.741 25.1305 103.103 24.7364 102.061 23.9557C101.027 23.1457 100.503 21.7228 100.503 19.6943V11.0621H98.2163H98.2236Z" fill="white"/>
<path d="M119.837 21.3578C120.667 21.3578 121.374 21.117 121.949 20.6281C122.524 20.1174 122.816 19.3658 122.816 18.3734V16.8119C122.146 17.1329 121.308 17.4102 120.289 17.6437C119.364 17.8553 118.723 18.1034 118.352 18.4099C117.98 18.7091 117.798 19.125 117.798 19.6577C117.798 20.1903 117.995 20.6427 118.388 20.9419C118.781 21.2192 119.262 21.3578 119.837 21.3578ZM123.369 24.7874C123.092 24.3277 122.896 23.6782 122.779 22.8464H122.714C121.563 24.4444 119.786 25.2398 117.383 25.2398C115.628 25.2398 114.215 24.7801 113.13 23.8534C112.045 22.9267 111.506 21.6205 111.506 19.9349C111.506 18.1326 112.082 16.8411 113.24 16.053C114.39 15.2431 115.949 14.725 117.907 14.4915C119.75 14.2799 120.995 14.0391 121.643 13.7618C122.313 13.4845 122.648 13.0686 122.648 12.514C122.648 11.383 122.022 10.8139 120.777 10.8139C119.415 10.8139 118.643 11.5217 118.461 12.93H112.271C112.337 11.0838 113.087 9.5588 114.521 8.35482C115.949 7.15083 117.995 6.55249 120.646 6.55249C123.296 6.55249 125.153 6.94652 126.42 7.72729C128.241 8.8583 129.151 10.6314 129.151 13.0321V21.8759C129.151 23.3572 129.37 24.2328 129.807 24.5101V24.7874H123.369Z" fill="white"/>
<path d="M140.271 19.3439C141.196 19.3439 141.924 18.9718 142.449 18.2348C143.002 17.4759 143.279 16.4908 143.279 15.2868C143.279 14.0829 143.002 13.1853 142.449 12.4411C141.917 11.6822 141.189 11.2955 140.271 11.2955C139.354 11.2955 138.611 11.6676 138.057 12.4046C137.526 13.1197 137.264 14.0829 137.264 15.2795C137.264 16.4762 137.54 17.4613 138.094 18.2275C138.647 18.9645 139.375 19.3366 140.271 19.3366M140.271 30.9605C137.737 30.9605 135.669 30.4643 134.081 29.4719C132.494 28.4796 131.547 27.0202 131.241 25.1011H137.54C137.679 25.517 137.97 25.86 138.407 26.1373C138.866 26.4364 139.456 26.5897 140.169 26.5897C142.063 26.5897 143.009 25.5608 143.009 23.5031V21.9051H142.871C141.699 23.2477 140.206 23.919 138.407 23.919C136.288 23.919 134.496 23.1893 133.047 21.7373C131.62 20.2852 130.899 18.2275 130.899 15.5641C130.899 12.9008 131.569 10.8576 132.909 9.15017C134.249 7.41352 135.975 6.55249 138.101 6.55249C140.359 6.55249 142.034 7.38433 143.119 9.04802H143.221V7.10705H149.447V22.6713C149.447 25.4441 148.58 27.5602 146.854 29.0122C145.332 30.3038 143.14 30.9532 140.278 30.9532" fill="white"/>
<path d="M160.618 10.9233C158.885 10.9233 157.836 11.974 157.472 14.0755H163.56C163.421 13.0831 163.087 12.3097 162.555 11.7551C162.045 11.2006 161.404 10.9233 160.618 10.9233ZM160.72 25.2689C157.858 25.2689 155.528 24.3933 153.729 22.6347C151.952 20.8762 151.063 18.6361 151.063 15.907C151.063 13.178 151.937 10.9598 153.692 9.17932C155.447 7.39888 157.705 6.50867 160.472 6.50867C163.079 6.50867 165.249 7.30403 166.975 8.90204C169.094 10.8649 170.121 13.7472 170.056 17.5342H157.465C157.88 19.7306 159.03 20.8251 160.924 20.8251C162.074 20.8251 162.897 20.3873 163.378 19.5044H169.706C169.313 21.1681 168.199 22.591 166.349 23.7658C164.805 24.7581 162.926 25.2543 160.712 25.2543" fill="white"/>
<path d="M178.539 21.3289C178.539 23.4961 176.792 25.2474 174.629 25.2474C172.466 25.2474 170.718 23.4961 170.718 21.3289C170.718 19.1618 172.466 17.4105 174.629 17.4105C176.792 17.4105 178.539 19.1618 178.539 21.3289Z" fill="#F5B335"/>
</g>
<defs>
<clipPath id="clip0_164_3414">
<rect width="177.686" height="31.11" fill="white"/>
</clipPath>
</defs>
</svg>
