<?xml version="1.0" encoding="UTF-8"?>
<svg id="Layer_1" data-name="Layer 1" xmlns="http://www.w3.org/2000/svg" xmlns:xlink="http://www.w3.org/1999/xlink" viewBox="0 0 850.39 850.39">
  <defs>
    <style>
      .cls-1 {
        fill: url(#linear-gradient-15);
      }

      .cls-2 {
        fill: url(#linear-gradient-13);
      }

      .cls-3 {
        fill: url(#linear-gradient-28);
      }

      .cls-4 {
        fill: url(#linear-gradient-2);
      }

      .cls-5 {
        fill: url(#linear-gradient-25);
      }

      .cls-6 {
        fill: url(#linear-gradient-10);
      }

      .cls-7 {
        fill: url(#linear-gradient-12);
      }

      .cls-8 {
        fill: url(#linear-gradient-27);
      }

      .cls-9 {
        opacity: .2;
      }

      .cls-9, .cls-10, .cls-11, .cls-12, .cls-13, .cls-14 {
        fill: #526872;
      }

      .cls-15 {
        fill: url(#linear-gradient-26);
      }

      .cls-16 {
        fill: url(#linear-gradient-4);
      }

      .cls-17 {
        fill: url(#linear-gradient-3);
      }

      .cls-11 {
        opacity: .8;
      }

      .cls-18 {
        fill: url(#linear-gradient-5);
      }

      .cls-19 {
        fill: url(#linear-gradient-22);
      }

      .cls-20 {
        fill: url(#linear-gradient-24);
      }

      .cls-21 {
        fill: url(#linear-gradient-8);
      }

      .cls-22 {
        fill: url(#_1);
      }

      .cls-23 {
        fill: url(#linear-gradient-14);
      }

      .cls-24 {
        fill: #2c3640;
      }

      .cls-25 {
        fill: url(#linear-gradient-20);
      }

      .cls-26 {
        fill: url(#linear-gradient-17);
      }

      .cls-27 {
        fill: url(#linear-gradient-7);
      }

      .cls-28 {
        fill: url(#linear-gradient-9);
      }

      .cls-29 {
        fill: url(#linear-gradient-11);
      }

      .cls-30 {
        fill: url(#linear-gradient-19);
      }

      .cls-31 {
        fill: url(#linear-gradient-6);
      }

      .cls-32 {
        fill: url(#linear-gradient-21);
      }

      .cls-12 {
        opacity: .6;
      }

      .cls-13 {
        opacity: 0;
      }

      .cls-33 {
        fill: url(#linear-gradient-16);
      }

      .cls-14 {
        opacity: .4;
      }

      .cls-34 {
        fill: url(#linear-gradient);
      }

      .cls-35 {
        fill: url(#linear-gradient-23);
      }

      .cls-36 {
        fill: url(#linear-gradient-18);
      }
    </style>
    <linearGradient id="linear-gradient" x1="345.69" y1="379.07" x2="426.57" y2="505.15" gradientUnits="userSpaceOnUse">
      <stop offset="0" stop-color="#73838e"/>
      <stop offset="1" stop-color="#2b353c"/>
    </linearGradient>
    <linearGradient id="linear-gradient-2" x1="421.5" y1="466.79" x2="784.19" y2="462.11" xlink:href="#linear-gradient"/>
    <linearGradient id="linear-gradient-3" x1="421.52" y1="468.5" x2="784.21" y2="463.82" xlink:href="#linear-gradient"/>
    <linearGradient id="linear-gradient-4" x1="421.52" y1="468.78" x2="784.21" y2="464.09" xlink:href="#linear-gradient"/>
    <linearGradient id="linear-gradient-5" x1="421.52" y1="469" x2="784.21" y2="464.31" xlink:href="#linear-gradient"/>
    <linearGradient id="linear-gradient-6" x1="421.51" y1="467.77" x2="784.2" y2="463.08" xlink:href="#linear-gradient"/>
    <linearGradient id="linear-gradient-7" x1="421.5" y1="467.12" x2="784.19" y2="462.43" xlink:href="#linear-gradient"/>
    <linearGradient id="linear-gradient-8" x1="421.53" y1="469.47" x2="784.22" y2="464.78" xlink:href="#linear-gradient"/>
    <linearGradient id="linear-gradient-9" x1="421.53" y1="469.72" x2="784.22" y2="465.03" xlink:href="#linear-gradient"/>
    <linearGradient id="linear-gradient-10" x1="421.52" y1="468.48" x2="784.21" y2="463.8" xlink:href="#linear-gradient"/>
    <linearGradient id="linear-gradient-11" x1="421.54" y1="470.22" x2="784.23" y2="465.53" xlink:href="#linear-gradient"/>
    <linearGradient id="linear-gradient-12" x1="421.54" y1="470.46" x2="784.23" y2="465.77" xlink:href="#linear-gradient"/>
    <linearGradient id="linear-gradient-13" x1="421.55" y1="470.62" x2="784.24" y2="465.93" xlink:href="#linear-gradient"/>
    <linearGradient id="linear-gradient-14" x1="421.53" y1="469.44" x2="784.22" y2="464.75" xlink:href="#linear-gradient"/>
    <linearGradient id="linear-gradient-15" x1="421.53" y1="469.61" x2="784.22" y2="464.92" xlink:href="#linear-gradient"/>
    <linearGradient id="linear-gradient-16" x1="421.56" y1="471.4" x2="784.25" y2="466.72" xlink:href="#linear-gradient"/>
    <linearGradient id="linear-gradient-17" x1="421.53" y1="469.57" x2="784.22" y2="464.88" xlink:href="#linear-gradient"/>
    <linearGradient id="linear-gradient-18" x1="421.56" y1="471.8" x2="784.25" y2="467.11" xlink:href="#linear-gradient"/>
    <linearGradient id="linear-gradient-19" x1="421.54" y1="470.51" x2="784.23" y2="465.82" xlink:href="#linear-gradient"/>
    <linearGradient id="linear-gradient-20" x1="421.54" y1="469.86" x2="784.23" y2="465.17" xlink:href="#linear-gradient"/>
    <linearGradient id="linear-gradient-21" x1="421.57" y1="472.25" x2="784.26" y2="467.56" xlink:href="#linear-gradient"/>
    <linearGradient id="linear-gradient-22" x1="421.57" y1="472.41" x2="784.26" y2="467.72" xlink:href="#linear-gradient"/>
    <linearGradient id="_1" data-name="1" x1="171.22" y1="349.14" x2="128.2" y2="473.11" gradientUnits="userSpaceOnUse">
      <stop offset="0" stop-color="#7d7d7d"/>
      <stop offset=".23" stop-color="#909090"/>
      <stop offset=".25" stop-color="#939393"/>
      <stop offset=".41" stop-color="#b7b6b6"/>
      <stop offset=".61" stop-color="#e1e0e0"/>
      <stop offset=".69" stop-color="#dbdada"/>
      <stop offset=".8" stop-color="#cac9c9"/>
      <stop offset=".92" stop-color="#aeaeae"/>
      <stop offset="1" stop-color="#989898"/>
    </linearGradient>
    <linearGradient id="linear-gradient-23" x1="134.5" y1="454.21" x2="161.86" y2="462.7" xlink:href="#linear-gradient"/>
    <linearGradient id="linear-gradient-24" x1="180.99" y1="366.88" x2="95.8" y2="513.65" xlink:href="#linear-gradient"/>
    <linearGradient id="linear-gradient-25" x1="185.71" y1="434.07" x2="158.39" y2="438.88" xlink:href="#linear-gradient"/>
    <linearGradient id="linear-gradient-26" x1="82.07" y1="448.46" x2="222.18" y2="395.81" xlink:href="#linear-gradient"/>
    <linearGradient id="linear-gradient-27" x1="160.23" y1="397.19" x2="150.88" y2="367.05" xlink:href="#linear-gradient"/>
    <linearGradient id="linear-gradient-28" x1="86.48" y1="434.42" x2="139.95" y2="398.65" xlink:href="#linear-gradient"/>
  </defs>
  <g>
    <path class="cls-24" d="M299.76,388.64v59.38h14.51v-71.1l-14.51,11.72Z"/>
    <g>
      <rect class="cls-10" x="299.76" y="363.37" width="14.51" height="13.55"/>
      <rect class="cls-11" x="305.86" y="363.37" width="14.51" height="13.55"/>
      <rect class="cls-12" x="311.95" y="363.37" width="14.51" height="13.55"/>
      <rect class="cls-14" x="318.04" y="363.37" width="14.51" height="13.55"/>
      <rect class="cls-9" x="324.14" y="363.37" width="14.51" height="13.55"/>
      <rect class="cls-13" x="330.23" y="363.37" width="14.51" height="13.55"/>
    </g>
    <path class="cls-34" d="M371.11,405.57l26.6-42.2h-16.93l-18.02,28.78-18.02-28.78v13.55h-8.45l23.81,38.08h-11.61l-20.67,33.02h16.92l18.02-28.78,42.61,67.8h16.92l-51.19-81.46Z"/>
    <path class="cls-24" d="M411.25,388.64v59.38h54.78v-13.55h-40.27v-22.01h31.55v-13.54h-31.55v-22.01l-14.51,11.72ZM466.03,363.37h-54.78v13.55h54.78v-13.55Z"/>
    <path class="cls-24" d="M481.99,434.47v13.55h54.77v-13.55h-54.77ZM481.99,363.37v71.1l14.51-12.94v-58.16h-14.51Z"/>
    <path class="cls-24" d="M587.91,363.37h-15.23l11.6,25.27h-11.6l-27.21,59.38h15.12l5.44-11.86h40.14l5.45,11.86h14.99l-38.69-84.64ZM572.31,422.62l13.78-29.99,13.78,29.99h-27.56Z"/>
    <path class="cls-24" d="M650.18,388.64v59.38h14.51v-71.1l-14.51,11.72ZM622.73,363.37v13.55h69.65v-13.55h-69.65Z"/>
    <path class="cls-24" d="M705.92,388.64v59.38h54.77v-13.55h-40.27v-22.01h31.56v-13.54h-31.56v-22.01l-14.5,11.72ZM760.69,363.37h-54.77v13.55h54.77v-13.55Z"/>
    <path class="cls-4" d="M442.28,471.65c-.76.47-1.67.71-2.73.71s-1.92-.24-2.74-.71c-.81-.47-1.44-1.14-1.9-2.02-.46-.87-.69-1.88-.69-3.04s.23-2.19.69-3.07c.46-.87,1.09-1.54,1.9-2.02.82-.47,1.72-.71,2.74-.71s1.97.24,2.73.71c.76.48,1.34,1.15,1.75,2.03h2.28c-.55-1.41-1.4-2.5-2.59-3.27-1.18-.76-2.57-1.14-4.17-1.14-1.35,0-2.58.32-3.69.96-1.11.64-1.98,1.53-2.62,2.66-.64,1.14-.97,2.42-.97,3.84s.33,2.7.97,3.82c.64,1.13,1.51,2.02,2.62,2.65,1.11.64,2.34.95,3.69.95,1.6,0,2.98-.38,4.17-1.13,1.18-.76,2.04-1.84,2.59-3.24h-2.28c-.4.88-.98,1.55-1.75,2.02Z"/>
    <path class="cls-17" d="M456.65,462.76c-.62.36-1.1.87-1.44,1.52v-1.86h-1.9v11.45h1.9v-6.23c0-2.31,1.07-3.47,3.2-3.47h.5v-1.97c-.9,0-1.66.18-2.27.55Z"/>
    <path class="cls-16" d="M475.75,467.71c0-1.04-.23-1.98-.68-2.81-.45-.83-1.1-1.49-1.93-1.96-.84-.47-1.8-.71-2.89-.71s-2.1.24-2.96.72c-.86.48-1.52,1.17-1.99,2.06-.48.9-.71,1.93-.71,3.12s.24,2.23.73,3.13,1.16,1.6,2.02,2.08c.86.49,1.83.73,2.92.73,1.37,0,2.51-.34,3.43-1.03.92-.69,1.54-1.59,1.84-2.69h-2.04c-.23.64-.61,1.15-1.17,1.54-.55.38-1.24.57-2.06.57-1,0-1.86-.32-2.55-.95-.71-.63-1.09-1.51-1.17-2.65h9.16c.04-.4.07-.79.07-1.15ZM466.55,467.31c.1-1.08.49-1.93,1.16-2.55.67-.61,1.5-.92,2.45-.92.67,0,1.29.13,1.83.41.55.27.99.66,1.31,1.18.32.53.48,1.15.48,1.87h-7.23Z"/>
    <path class="cls-18" d="M491.43,462.42v2.09c-.36-.66-.92-1.2-1.65-1.63-.74-.44-1.61-.66-2.61-.66s-1.95.24-2.77.73c-.83.5-1.49,1.18-1.96,2.07-.47.88-.71,1.91-.71,3.08s.24,2.18.71,3.09,1.13,1.61,1.95,2.11c.81.5,1.74.76,2.76.76s1.86-.22,2.61-.66c.75-.44,1.3-.99,1.68-1.66v2.13h1.92v-11.45h-1.92ZM490.91,470.4c-.35.65-.82,1.14-1.41,1.49-.6.34-1.24.51-1.96.51s-1.35-.18-1.94-.51c-.59-.34-1.05-.84-1.4-1.49-.34-.65-.52-1.41-.52-2.29s.18-1.62.52-2.26c.35-.64.82-1.13,1.4-1.46.59-.34,1.24-.5,1.94-.5s1.36.17,1.96.51c.59.34,1.06.83,1.41,1.47.34.65.52,1.4.52,2.26s-.18,1.62-.52,2.27Z"/>
    <path class="cls-31" d="M506.07,463.99v-1.56h-2.99v-2.89h-1.9v2.89h-1.49v1.56h1.49v6.76c0,1.12.26,1.92.79,2.4.53.49,1.33.73,2.39.73h1.71v-1.61h-1.4c-.58,0-.99-.12-1.24-.34-.24-.24-.35-.62-.35-1.18v-6.76h2.99Z"/>
    <path class="cls-27" d="M512.55,462.42v11.45h1.91v-11.45h-1.91ZM514.42,458.35c-.24-.25-.54-.38-.89-.38s-.66.13-.92.38c-.25.24-.38.55-.38.92s.13.67.38.92c.25.24.55.37.92.37s.65-.13.89-.37c.24-.25.37-.56.37-.92s-.13-.67-.37-.92Z"/>
    <path class="cls-21" d="M529.7,462.42l-3.55,9.7-3.58-9.7h-2.04l4.5,11.45h2.21l4.5-11.45h-2.03Z"/>
    <path class="cls-28" d="M548.25,467.71c0-1.04-.23-1.98-.68-2.81-.45-.83-1.09-1.49-1.93-1.96-.83-.47-1.8-.71-2.88-.71s-2.1.24-2.96.72c-.86.48-1.53,1.17-2,2.06-.47.9-.71,1.93-.71,3.12s.24,2.23.73,3.13c.5.9,1.17,1.6,2.03,2.08s1.82.73,2.92.73c1.36,0,2.5-.34,3.43-1.03.92-.69,1.53-1.59,1.84-2.69h-2.05c-.23.64-.61,1.15-1.16,1.54-.55.38-1.24.57-2.06.57-1.01,0-1.86-.32-2.56-.95-.71-.63-1.09-1.51-1.16-2.65h9.16c.04-.4.06-.79.06-1.15ZM539.04,467.31c.1-1.08.49-1.93,1.16-2.55.68-.61,1.5-.92,2.46-.92.66,0,1.28.13,1.83.41.55.27.98.66,1.3,1.18.32.53.48,1.15.48,1.87h-7.23Z"/>
    <path class="cls-6" d="M572.55,460.85v-1.56h-7.84v14.59h7.84v-1.56h-5.94v-5.02h5.31v-1.57h-5.31v-4.87h5.94Z"/>
    <path class="cls-29" d="M587.43,462.42l-3.55,9.7-3.57-9.7h-2.05l4.5,11.45h2.22l4.5-11.45h-2.03Z"/>
    <path class="cls-7" d="M605.98,467.71c0-1.04-.23-1.98-.68-2.81-.45-.83-1.1-1.49-1.93-1.96-.84-.47-1.8-.71-2.89-.71s-2.1.24-2.96.72c-.86.48-1.52,1.17-1.99,2.06-.48.9-.71,1.93-.71,3.12s.24,2.23.73,3.13c.49.9,1.16,1.6,2.02,2.08s1.83.73,2.92.73c1.37,0,2.51-.34,3.43-1.03.92-.69,1.54-1.59,1.84-2.69h-2.05c-.22.64-.61,1.15-1.16,1.54-.55.38-1.24.57-2.06.57-1,0-1.86-.32-2.56-.95-.7-.63-1.08-1.51-1.16-2.65h9.16c.04-.4.07-.79.07-1.15ZM596.78,467.31c.09-1.08.48-1.93,1.16-2.55.67-.61,1.5-.92,2.45-.92.67,0,1.28.13,1.83.41.55.27.98.66,1.31,1.18.32.53.48,1.15.48,1.87h-7.23Z"/>
    <path class="cls-2" d="M621.65,463.47c-.87-.84-2-1.26-3.39-1.26-.78,0-1.5.16-2.14.48s-1.16.77-1.54,1.36v-1.63h-1.9v11.45h1.9v-6.34c0-1.19.3-2.11.89-2.74.6-.62,1.4-.94,2.39-.94s1.77.31,2.34.92c.57.6.86,1.48.86,2.62v6.48h1.88v-6.75c0-1.59-.44-2.81-1.29-3.66Z"/>
    <path class="cls-23" d="M635.55,463.99v-1.56h-2.99v-2.89h-1.9v2.89h-1.49v1.56h1.49v6.76c0,1.12.27,1.92.8,2.4.53.49,1.32.73,2.38.73h1.71v-1.61h-1.4c-.59,0-1-.12-1.24-.34-.24-.24-.36-.62-.36-1.18v-6.76h2.99Z"/>
    <path class="cls-1" d="M660.64,467.72c-.41-.54-.92-.94-1.5-1.19-.58-.26-1.35-.52-2.32-.79-.8-.22-1.41-.42-1.85-.59-.44-.18-.81-.44-1.11-.76-.3-.34-.45-.77-.45-1.3,0-.74.25-1.31.76-1.72.5-.41,1.15-.61,1.94-.61.86,0,1.54.21,2.05.64.52.42.82.92.88,1.47h2.09c-.12-1.13-.6-2.03-1.48-2.71-.87-.69-1.99-1.03-3.35-1.03-.95,0-1.79.17-2.52.5-.73.34-1.3.82-1.71,1.43s-.61,1.31-.61,2.11c0,.91.2,1.63.61,2.16.41.54.91.93,1.49,1.18.58.25,1.35.5,2.31.76.78.2,1.4.4,1.87.58.45.18.84.45,1.14.8.31.34.46.8.46,1.36,0,.71-.26,1.29-.78,1.74-.52.45-1.24.68-2.14.68s-1.67-.24-2.17-.7c-.5-.47-.77-1.04-.85-1.72h-2.03c.02.79.24,1.49.67,2.1.43.61,1.03,1.08,1.78,1.42.76.34,1.62.51,2.59.51s1.87-.19,2.61-.59c.74-.39,1.29-.9,1.67-1.52.38-.63.56-1.3.56-2.01,0-.92-.21-1.66-.63-2.18Z"/>
    <path class="cls-33" d="M678.36,465.01c-.5-.89-1.2-1.58-2.08-2.06-.88-.48-1.87-.72-2.95-.72s-2.07.24-2.95.72c-.87.48-1.57,1.18-2.08,2.08-.5.9-.76,1.93-.76,3.1s.24,2.23.74,3.13c.5.9,1.18,1.6,2.05,2.08.87.49,1.84.73,2.92.73s2.08-.24,2.97-.73,1.61-1.18,2.13-2.08.78-1.94.78-3.13-.25-2.22-.76-3.12ZM676.63,470.47c-.37.64-.86,1.12-1.45,1.45-.6.32-1.24.48-1.92.48s-1.31-.16-1.88-.47c-.57-.32-1.02-.79-1.37-1.44-.34-.64-.51-1.43-.51-2.36s.18-1.7.52-2.34c.35-.64.81-1.12,1.39-1.43.58-.31,1.21-.47,1.91-.47s1.32.16,1.91.47c.59.31,1.06.79,1.42,1.43.36.65.55,1.43.55,2.34s-.19,1.71-.55,2.34Z"/>
    <path class="cls-26" d="M685.82,458.41v15.47h1.9v-15.47h-1.9Z"/>
    <path class="cls-36" d="M703.4,462.42v6.29c0,1.19-.29,2.11-.87,2.74-.59.62-1.39.94-2.4.94s-1.77-.3-2.34-.92c-.57-.61-.86-1.47-.86-2.6v-6.46h-1.88v6.71c0,1.06.2,1.96.61,2.7.41.73.97,1.29,1.69,1.66.71.37,1.51.55,2.4.55.78,0,1.5-.16,2.14-.49.65-.33,1.15-.78,1.51-1.37v1.69h1.91v-11.45h-1.91Z"/>
    <path class="cls-30" d="M718.02,463.99v-1.56h-2.99v-2.89h-1.91v2.89h-1.48v1.56h1.48v6.76c0,1.12.27,1.92.8,2.4s1.33.73,2.39.73h1.71v-1.61h-1.4c-.59,0-1-.12-1.24-.34-.24-.24-.35-.62-.35-1.18v-6.76h2.99Z"/>
    <path class="cls-25" d="M724.5,462.42v11.45h1.91v-11.45h-1.91ZM726.37,458.35c-.24-.25-.55-.38-.89-.38-.36,0-.67.13-.92.38-.25.24-.38.55-.38.92s.13.67.38.92.55.37.92.37.65-.13.89-.37c.24-.25.36-.56.36-.92s-.12-.67-.36-.92Z"/>
    <path class="cls-32" d="M743.94,465.01c-.51-.89-1.2-1.58-2.08-2.06-.87-.48-1.86-.72-2.94-.72s-2.08.24-2.95.72c-.88.48-1.57,1.18-2.08,2.08-.5.9-.76,1.93-.76,3.1s.25,2.23.75,3.13c.49.9,1.18,1.6,2.04,2.08.87.49,1.85.73,2.92.73s2.08-.24,2.97-.73,1.6-1.18,2.13-2.08c.52-.9.78-1.94.78-3.13s-.25-2.22-.76-3.12ZM742.21,470.47c-.37.64-.86,1.12-1.45,1.45-.61.32-1.24.48-1.92.48s-1.31-.16-1.88-.47c-.57-.32-1.03-.79-1.37-1.44-.34-.64-.51-1.43-.51-2.36s.17-1.7.52-2.34c.34-.64.81-1.12,1.39-1.43.58-.31,1.22-.47,1.92-.47s1.32.16,1.91.47c.58.31,1.06.79,1.42,1.43.36.65.54,1.43.54,2.34s-.18,1.71-.55,2.34Z"/>
    <path class="cls-19" d="M760.37,463.47c-.87-.84-2-1.26-3.39-1.26-.78,0-1.5.16-2.14.48-.66.32-1.17.77-1.54,1.36v-1.63h-1.91v11.45h1.91v-6.34c0-1.19.29-2.11.88-2.74.6-.62,1.39-.94,2.39-.94s1.77.31,2.34.92c.57.6.86,1.48.86,2.62v6.48h1.88v-6.75c0-1.59-.43-2.81-1.29-3.66Z"/>
    <path class="cls-24" d="M228.66,363.37h27.93c4.76,0,8.93.79,12.52,2.36,3.59,1.57,6.57,3.65,8.95,6.23,2.38,2.58,4.17,5.5,5.38,8.77,1.21,3.26,1.81,6.63,1.81,10.1s-.6,6.73-1.81,10.04c-1.21,3.31-3,6.23-5.38,8.77-2.38,2.54-5.36,4.59-8.95,6.17-3.59,1.57-7.76,2.36-12.52,2.36h-13.42v29.87h-14.51v-59.47l14.27-11.63h-14.27v-13.54ZM243.17,376.91v27.69h13.42c3.06,0,5.62-.69,7.68-2.07,2.06-1.38,3.59-3.09,4.6-5.13,1.01-2.03,1.51-4.25,1.51-6.65s-.53-4.62-1.57-6.65c-1.05-2.03-2.58-3.74-4.59-5.12-2.02-1.38-4.56-2.07-7.62-2.07h-13.42Z"/>
  </g>
  <g>
    <polygon class="cls-22" points="106 514.29 172.57 450.61 191.56 473.47 215.71 336.11 88.73 403.89 133.48 424.12 106 514.29"/>
    <polygon class="cls-35" points="110.43 506.73 166.67 404.21 172.57 446.06 110.43 506.73"/>
    <polygon class="cls-20" points="166.67 404.21 110.43 506.73 138.55 421.72 166.67 404.21"/>
    <polygon class="cls-5" points="189.44 466.62 189.81 463.83 166.67 404.21 172.57 446.06 189.44 466.62"/>
    <polyline class="cls-15" points="166.67 404.21 209.2 344.84 189.81 463.83"/>
    <polygon class="cls-8" points="97.1 403.89 209.2 344.84 166.67 404.21 97.1 403.89"/>
    <polyline class="cls-3" points="166.67 404.21 138.55 421.72 97.1 403.89"/>
  </g>
</svg>