<svg width="28" height="39" viewBox="0 0 28 39" fill="none" xmlns="http://www.w3.org/2000/svg">
<path d="M3.75175 38.6985L18.2018 24.8683L22.3249 29.8367L27.5682 0L0 14.7196L9.71481 19.1147L3.75175 38.6985Z" fill="url(#paint0_linear_130_6564)"/>
<path d="M4.71252 37.0564L16.922 14.7913L18.2019 23.8811L4.71252 37.0564Z" fill="url(#paint1_linear_130_6564)"/>
<path d="M16.922 14.7913L4.71252 37.0564L10.8156 18.5966L16.922 14.7913Z" fill="url(#paint2_linear_130_6564)"/>
<path d="M21.8656 28.3478L21.9437 27.7386L16.9219 14.7913L18.2018 23.8811L21.8656 28.3478Z" fill="url(#paint3_linear_130_6564)"/>
<path d="M16.9219 14.7913L26.1547 1.89615L21.9437 27.7386" fill="url(#paint4_linear_130_6564)"/>
<path d="M1.81726 14.7196L26.1548 1.89615L16.9219 14.7913L1.81726 14.7196Z" fill="url(#paint5_linear_130_6564)"/>
<path d="M16.922 14.7913L10.8156 18.5966L1.81726 14.7196" fill="url(#paint6_linear_130_6564)"/>
<defs>
<linearGradient id="paint0_linear_130_6564" x1="17.9087" y1="2.82794" x2="8.56194" y2="29.753" gradientUnits="userSpaceOnUse">
<stop stop-color="#7E7E7E"/>
<stop offset="0.25" stop-color="#929292"/>
<stop offset="0.41" stop-color="#B6B5B5"/>
<stop offset="0.61" stop-color="#E0DFDF"/>
<stop offset="0.69" stop-color="#DAD9D9"/>
<stop offset="0.8" stop-color="#C9C8C8"/>
<stop offset="0.92" stop-color="#ADADAD"/>
<stop offset="1" stop-color="#969696"/>
</linearGradient>
<linearGradient id="paint1_linear_130_6564" x1="9.93631" y1="25.6502" x2="15.877" y2="27.4929" gradientUnits="userSpaceOnUse">
<stop stop-color="#73828D"/>
<stop offset="1" stop-color="#2B353C"/>
</linearGradient>
<linearGradient id="paint2_linear_130_6564" x1="20.0289" y1="6.68541" x2="1.52317" y2="38.5554" gradientUnits="userSpaceOnUse">
<stop stop-color="#73828D"/>
<stop offset="1" stop-color="#2B353C"/>
</linearGradient>
<linearGradient id="paint3_linear_130_6564" x1="21.0547" y1="21.2747" x2="15.124" y2="22.3197" gradientUnits="userSpaceOnUse">
<stop stop-color="#73828D"/>
<stop offset="1" stop-color="#2B353C"/>
</linearGradient>
<linearGradient id="paint4_linear_130_6564" x1="-1.44605" y1="24.4024" x2="28.9747" y2="12.9746" gradientUnits="userSpaceOnUse">
<stop stop-color="#73828D"/>
<stop offset="1" stop-color="#2B353C"/>
</linearGradient>
<linearGradient id="paint5_linear_130_6564" x1="15.5216" y1="13.2666" x2="13.4944" y2="6.72169" gradientUnits="userSpaceOnUse">
<stop stop-color="#73828D"/>
<stop offset="1" stop-color="#2B353C"/>
</linearGradient>
<linearGradient id="paint6_linear_130_6564" x1="-0.4885" y1="21.3529" x2="11.1245" y2="13.5868" gradientUnits="userSpaceOnUse">
<stop stop-color="#73828D"/>
<stop offset="1" stop-color="#2B353C"/>
</linearGradient>
</defs>
</svg>
