<?xml version="1.0" encoding="UTF-8"?>
<svg id="Layer_1" data-name="Layer 1" xmlns="http://www.w3.org/2000/svg" xmlns:xlink="http://www.w3.org/1999/xlink" viewBox="0 0 850.39 850.39">
  <defs>
    <style>
      .cls-1 {
        opacity: .8;
      }

      .cls-1, .cls-2, .cls-3, .cls-4, .cls-5, .cls-6 {
        fill: #fff;
      }

      .cls-2 {
        opacity: .2;
      }

      .cls-7 {
        fill: url(#linear-gradient-2);
      }

      .cls-3 {
        opacity: .6;
      }

      .cls-8 {
        fill: url(#linear-gradient-4);
      }

      .cls-5 {
        opacity: 0;
      }

      .cls-9 {
        fill: url(#linear-gradient-3);
      }

      .cls-10 {
        fill: url(#linear-gradient-5);
      }

      .cls-11 {
        fill: url(#_1);
      }

      .cls-6 {
        opacity: .4;
      }

      .cls-12 {
        fill: url(#linear-gradient-6);
      }

      .cls-13 {
        fill: url(#linear-gradient);
      }
    </style>
    <linearGradient id="_1" data-name="1" x1="178.55" y1="351.33" x2="136.76" y2="471.73" gradientUnits="userSpaceOnUse">
      <stop offset="0" stop-color="#7d7d7d"/>
      <stop offset=".23" stop-color="#909090"/>
      <stop offset=".25" stop-color="#939393"/>
      <stop offset=".41" stop-color="#b7b6b6"/>
      <stop offset=".61" stop-color="#e1e0e0"/>
      <stop offset=".69" stop-color="#dbdada"/>
      <stop offset=".8" stop-color="#cac9c9"/>
      <stop offset=".92" stop-color="#aeaeae"/>
      <stop offset="1" stop-color="#989898"/>
    </linearGradient>
    <linearGradient id="linear-gradient" x1="142.88" y1="453.37" x2="169.46" y2="461.62" gradientUnits="userSpaceOnUse">
      <stop offset="0" stop-color="#73838e"/>
      <stop offset="1" stop-color="#2b353c"/>
    </linearGradient>
    <linearGradient id="linear-gradient-2" x1="188.03" y1="368.57" x2="105.3" y2="511.1" xlink:href="#linear-gradient"/>
    <linearGradient id="linear-gradient-3" x1="192.62" y1="433.81" x2="166.09" y2="438.48" xlink:href="#linear-gradient"/>
    <linearGradient id="linear-gradient-4" x1="91.97" y1="447.79" x2="228.04" y2="396.66" xlink:href="#linear-gradient"/>
    <linearGradient id="linear-gradient-5" x1="167.87" y1="398" x2="158.8" y2="368.73" xlink:href="#linear-gradient"/>
    <linearGradient id="linear-gradient-6" x1="96.25" y1="434.15" x2="148.18" y2="399.42" xlink:href="#linear-gradient"/>
  </defs>
  <g>
    <path class="cls-4" d="M303.38,389.69v57.66h14.09v-69.05l-14.09,11.38Z"/>
    <g>
      <rect class="cls-4" x="303.38" y="365.15" width="14.09" height="13.16"/>
      <rect class="cls-1" x="309.3" y="365.15" width="14.09" height="13.16"/>
      <rect class="cls-3" x="315.22" y="365.15" width="14.09" height="13.16"/>
      <rect class="cls-6" x="321.13" y="365.15" width="14.09" height="13.16"/>
      <rect class="cls-2" x="327.05" y="365.15" width="14.09" height="13.16"/>
      <rect class="cls-5" x="332.97" y="365.15" width="14.09" height="13.16"/>
    </g>
    <path class="cls-4" d="M372.67,406.13l25.84-40.98h-16.44l-17.5,27.95-17.5-27.95v13.16h-8.21l23.13,36.98h-11.28l-20.08,32.06h16.44l17.5-27.95,41.38,65.84h16.44l-49.72-79.11Z"/>
    <path class="cls-4" d="M411.65,389.69v57.66h53.2v-13.15h-39.11v-21.37h30.64v-13.15h-30.64v-21.37l-14.09,11.38ZM464.85,365.15h-53.2v13.16h53.2v-13.16Z"/>
    <path class="cls-4" d="M480.35,434.2v13.15h53.19v-13.15h-53.19ZM480.35,365.15v69.05l14.09-12.57v-56.48h-14.09Z"/>
    <path class="cls-4" d="M583.21,365.15h-14.8l11.27,24.54h-11.27l-26.42,57.66h14.68l5.28-11.51h38.98l5.29,11.51h14.56l-37.57-82.2ZM568.07,422.69l13.38-29.13,13.38,29.13h-26.77Z"/>
    <path class="cls-4" d="M643.69,389.69v57.66h14.09v-69.05l-14.09,11.38ZM617.03,365.15v13.16h67.64v-13.16h-67.64Z"/>
    <path class="cls-4" d="M697.82,389.69v57.66h53.19v-13.15h-39.11v-21.37h30.65v-13.15h-30.65v-21.37l-14.09,11.38ZM751.02,365.15h-53.19v13.16h53.19v-13.16Z"/>
    <path class="cls-4" d="M441.79,470.31c-.73.46-1.62.69-2.65.69s-1.87-.23-2.66-.69c-.78-.46-1.4-1.11-1.84-1.96-.45-.85-.67-1.83-.67-2.95s.22-2.13.67-2.98c.45-.84,1.06-1.49,1.84-1.96.79-.46,1.67-.69,2.66-.69s1.92.23,2.65.69c.74.47,1.31,1.12,1.7,1.97h2.21c-.53-1.37-1.36-2.42-2.51-3.17-1.15-.74-2.5-1.11-4.05-1.11-1.31,0-2.51.31-3.58.93-1.08.62-1.93,1.49-2.55,2.59-.62,1.11-.94,2.35-.94,3.73s.32,2.62.94,3.71c.62,1.1,1.47,1.96,2.55,2.57,1.08.62,2.27.92,3.58.92,1.55,0,2.9-.37,4.05-1.1,1.15-.74,1.98-1.79,2.51-3.14h-2.21c-.39.86-.95,1.51-1.7,1.96Z"/>
    <path class="cls-4" d="M455.74,461.68c-.6.35-1.07.84-1.4,1.48v-1.8h-1.84v11.12h1.84v-6.05c0-2.24,1.04-3.37,3.11-3.37h.49v-1.91c-.87,0-1.61.17-2.2.53Z"/>
    <path class="cls-4" d="M474.29,466.48c0-1.01-.22-1.93-.66-2.73-.44-.81-1.07-1.44-1.88-1.9-.82-.46-1.75-.69-2.81-.69s-2.04.24-2.87.7c-.83.47-1.48,1.13-1.93,2-.47.87-.69,1.88-.69,3.03s.24,2.16.71,3.04,1.13,1.55,1.96,2.02c.83.47,1.78.71,2.83.71,1.33,0,2.44-.33,3.33-1,.9-.67,1.49-1.54,1.79-2.61h-1.98c-.22.62-.6,1.12-1.13,1.49-.53.37-1.2.56-2,.56-.97,0-1.8-.31-2.48-.92-.69-.61-1.06-1.47-1.13-2.57h8.9c.04-.39.06-.77.06-1.12ZM465.36,466.1c.1-1.05.47-1.88,1.13-2.48.65-.6,1.45-.89,2.38-.89.65,0,1.25.13,1.78.4.54.26.96.64,1.27,1.15.31.51.47,1.12.47,1.82h-7.03Z"/>
    <path class="cls-4" d="M489.52,461.35v2.03c-.35-.64-.89-1.17-1.6-1.58-.72-.42-1.57-.64-2.54-.64s-1.89.24-2.69.71c-.81.48-1.44,1.14-1.9,2.01-.46.86-.69,1.85-.69,2.99s.23,2.12.69,3,1.09,1.57,1.89,2.05c.79.49,1.69.73,2.68.73s1.8-.21,2.53-.64c.73-.42,1.27-.96,1.63-1.61v2.06h1.87v-11.12h-1.87ZM489.02,469.09c-.34.63-.8,1.11-1.37,1.44-.58.33-1.21.5-1.9.5s-1.31-.17-1.89-.5c-.57-.33-1.02-.82-1.36-1.44-.33-.63-.51-1.37-.51-2.22s.17-1.57.51-2.2c.34-.62.79-1.1,1.36-1.42.57-.33,1.2-.49,1.89-.49s1.32.16,1.9.5c.57.33,1.03.81,1.37,1.43.33.63.51,1.35.51,2.2s-.17,1.57-.51,2.2Z"/>
    <path class="cls-4" d="M503.74,462.87v-1.52h-2.9v-2.81h-1.84v2.81h-1.44v1.52h1.44v6.56c0,1.09.25,1.86.77,2.33.51.47,1.29.71,2.32.71h1.66v-1.56h-1.36c-.56,0-.96-.11-1.2-.33-.23-.23-.34-.6-.34-1.15v-6.56h2.9Z"/>
    <path class="cls-4" d="M510.03,461.35v11.12h1.85v-11.12h-1.85ZM511.85,457.39c-.24-.25-.52-.37-.87-.37s-.64.12-.89.37c-.24.24-.37.54-.37.89s.12.65.37.9c.25.24.54.36.89.36s.63-.12.87-.36c.24-.24.36-.55.36-.9s-.12-.65-.36-.89Z"/>
    <path class="cls-4" d="M526.69,461.35l-3.45,9.42-3.48-9.42h-1.98l4.37,11.12h2.15l4.37-11.12h-1.97Z"/>
    <path class="cls-4" d="M544.7,466.48c0-1.01-.22-1.93-.66-2.73-.44-.81-1.06-1.44-1.88-1.9-.81-.46-1.75-.69-2.8-.69s-2.04.24-2.87.7c-.83.47-1.49,1.13-1.94,2-.46.87-.69,1.88-.69,3.03s.24,2.16.71,3.04c.48.87,1.13,1.55,1.97,2.02.83.47,1.77.71,2.83.71,1.32,0,2.43-.33,3.33-1,.89-.67,1.49-1.54,1.79-2.61h-1.99c-.22.62-.6,1.12-1.13,1.49-.54.37-1.2.56-2,.56-.98,0-1.8-.31-2.49-.92-.69-.61-1.06-1.47-1.13-2.57h8.9c.04-.39.06-.77.06-1.12ZM535.76,466.1c.1-1.05.47-1.88,1.13-2.48.66-.6,1.45-.89,2.39-.89.64,0,1.24.13,1.78.4.53.26.96.64,1.27,1.15.31.51.47,1.12.47,1.82h-7.03Z"/>
    <path class="cls-4" d="M568.3,459.82v-1.52h-7.61v14.17h7.61v-1.52h-5.77v-4.87h5.16v-1.53h-5.16v-4.73h5.77Z"/>
    <path class="cls-4" d="M582.75,461.35l-3.45,9.42-3.47-9.42h-1.99l4.37,11.12h2.15l4.37-11.12h-1.97Z"/>
    <path class="cls-4" d="M600.77,466.48c0-1.01-.22-1.93-.66-2.73-.44-.81-1.07-1.44-1.88-1.9-.82-.46-1.75-.69-2.81-.69s-2.04.24-2.87.7c-.83.47-1.48,1.13-1.93,2-.47.87-.69,1.88-.69,3.03s.24,2.16.71,3.04c.47.87,1.13,1.55,1.96,2.02.83.47,1.78.71,2.83.71,1.33,0,2.44-.33,3.33-1,.9-.67,1.49-1.54,1.79-2.61h-1.99c-.21.62-.59,1.12-1.13,1.49-.53.37-1.2.56-2,.56-.97,0-1.8-.31-2.49-.92-.68-.61-1.05-1.47-1.13-2.57h8.9c.04-.39.07-.77.07-1.12ZM591.83,466.1c.09-1.05.47-1.88,1.13-2.48.65-.6,1.45-.89,2.38-.89.65,0,1.24.13,1.78.4.54.26.95.64,1.27,1.15.31.51.47,1.12.47,1.82h-7.03Z"/>
    <path class="cls-4" d="M615.98,462.37c-.84-.82-1.94-1.22-3.3-1.22-.76,0-1.45.16-2.08.47s-1.13.75-1.49,1.32v-1.58h-1.84v11.12h1.84v-6.15c0-1.16.29-2.05.87-2.66.58-.6,1.35-.91,2.33-.91s1.72.3,2.28.89c.55.59.83,1.44.83,2.55v6.29h1.83v-6.55c0-1.54-.42-2.73-1.26-3.55Z"/>
    <path class="cls-4" d="M629.48,462.87v-1.52h-2.91v-2.81h-1.84v2.81h-1.44v1.52h1.44v6.56c0,1.09.26,1.86.78,2.33.51.47,1.28.71,2.31.71h1.66v-1.56h-1.35c-.57,0-.97-.11-1.2-.33-.23-.23-.35-.6-.35-1.15v-6.56h2.91Z"/>
    <path class="cls-4" d="M653.85,466.5c-.4-.52-.89-.91-1.46-1.16-.56-.25-1.31-.51-2.25-.77-.78-.21-1.37-.41-1.8-.57-.42-.17-.78-.42-1.08-.74-.29-.33-.44-.75-.44-1.26,0-.72.25-1.27.73-1.67.49-.4,1.12-.6,1.89-.6.83,0,1.49.2,1.99.62.51.41.79.89.86,1.43h2.03c-.11-1.09-.59-1.97-1.44-2.64-.84-.67-1.93-1-3.26-1-.92,0-1.74.16-2.45.48-.71.33-1.26.79-1.66,1.39s-.59,1.27-.59,2.05c0,.88.2,1.58.6,2.1.4.52.88.91,1.44,1.15.56.25,1.31.49,2.24.73.76.2,1.36.39,1.81.56.44.18.82.43,1.11.78.3.33.45.78.45,1.32,0,.69-.25,1.25-.76,1.69-.51.44-1.2.66-2.08.66s-1.62-.23-2.11-.68c-.48-.46-.75-1.01-.82-1.67h-1.97c.02.77.23,1.44.65,2.04.42.59,1,1.04,1.73,1.38.74.33,1.57.5,2.51.5s1.82-.19,2.54-.57c.72-.38,1.26-.87,1.62-1.48.37-.61.55-1.26.55-1.95,0-.9-.2-1.61-.61-2.12Z"/>
    <path class="cls-4" d="M671.06,463.86c-.49-.87-1.17-1.53-2.02-2-.86-.47-1.81-.7-2.86-.7s-2.01.24-2.86.7c-.85.47-1.53,1.14-2.02,2.02-.49.87-.73,1.88-.73,3.01s.24,2.16.72,3.04c.48.87,1.14,1.55,1.99,2.02.84.47,1.79.71,2.83.71s2.02-.24,2.88-.71,1.56-1.15,2.06-2.02.76-1.89.76-3.04-.25-2.15-.74-3.03ZM669.38,469.17c-.36.62-.83,1.09-1.41,1.4-.58.31-1.21.47-1.87.47s-1.27-.16-1.83-.46c-.55-.31-1-.77-1.33-1.4-.33-.62-.5-1.39-.5-2.29s.17-1.65.51-2.28c.34-.62.79-1.09,1.35-1.39.56-.3,1.18-.46,1.85-.46s1.28.16,1.85.46c.57.3,1.03.77,1.38,1.39.35.63.53,1.39.53,2.28s-.18,1.66-.54,2.28Z"/>
    <path class="cls-4" d="M678.3,457.45v15.02h1.84v-15.02h-1.84Z"/>
    <path class="cls-4" d="M695.38,461.35v6.11c0,1.16-.29,2.05-.85,2.66-.57.6-1.35.91-2.33.91s-1.72-.29-2.28-.89c-.56-.59-.83-1.43-.83-2.52v-6.28h-1.83v6.52c0,1.03.2,1.9.6,2.62.4.71.95,1.25,1.64,1.61.69.36,1.47.54,2.33.54.76,0,1.45-.16,2.08-.47.63-.32,1.12-.76,1.47-1.33v1.64h1.85v-11.12h-1.85Z"/>
    <path class="cls-4" d="M709.58,462.87v-1.52h-2.91v-2.81h-1.85v2.81h-1.44v1.52h1.44v6.56c0,1.09.26,1.86.78,2.33s1.29.71,2.32.71h1.66v-1.56h-1.36c-.57,0-.97-.11-1.2-.33-.23-.23-.34-.6-.34-1.15v-6.56h2.91Z"/>
    <path class="cls-4" d="M715.87,461.35v11.12h1.85v-11.12h-1.85ZM717.69,457.39c-.24-.25-.53-.37-.86-.37-.35,0-.65.12-.89.37-.24.24-.37.54-.37.89s.12.65.37.9.54.36.89.36.63-.12.86-.36c.24-.24.35-.55.35-.9s-.11-.65-.35-.89Z"/>
    <path class="cls-4" d="M734.74,463.86c-.5-.87-1.17-1.53-2.02-2-.85-.47-1.8-.7-2.86-.7s-2.02.24-2.86.7c-.86.47-1.53,1.14-2.02,2.02-.49.87-.74,1.88-.74,3.01s.24,2.16.73,3.04c.47.87,1.14,1.55,1.98,2.02.85.47,1.8.71,2.84.71s2.02-.24,2.88-.71,1.55-1.15,2.06-2.02c.51-.87.76-1.89.76-3.04s-.24-2.15-.74-3.03ZM733.06,469.17c-.36.62-.83,1.09-1.41,1.4-.59.31-1.21.47-1.87.47s-1.27-.16-1.83-.46c-.55-.31-1-.77-1.33-1.4-.33-.62-.5-1.39-.5-2.29s.16-1.65.51-2.28c.33-.62.79-1.09,1.35-1.39.56-.3,1.18-.46,1.86-.46s1.28.16,1.85.46c.56.3,1.03.77,1.38,1.39.35.63.52,1.39.52,2.28s-.18,1.66-.53,2.28Z"/>
    <path class="cls-4" d="M750.7,462.37c-.84-.82-1.94-1.22-3.29-1.22-.76,0-1.45.16-2.08.47-.64.31-1.13.75-1.49,1.32v-1.58h-1.85v11.12h1.85v-6.15c0-1.16.29-2.05.86-2.66.58-.6,1.35-.91,2.33-.91s1.72.3,2.28.89c.55.59.83,1.44.83,2.55v6.29h1.83v-6.55c0-1.54-.42-2.73-1.26-3.55Z"/>
    <path class="cls-4" d="M234.33,365.15h27.13c4.62,0,8.67.76,12.15,2.29,3.48,1.53,6.38,3.54,8.69,6.05,2.31,2.51,4.05,5.34,5.23,8.51,1.17,3.17,1.76,6.44,1.76,9.81s-.59,6.54-1.76,9.75c-1.17,3.21-2.92,6.05-5.23,8.51-2.31,2.47-5.21,4.46-8.69,5.99-3.48,1.53-7.54,2.29-12.15,2.29h-13.04v29.01h-14.09v-57.76l13.86-11.29h-13.86v-13.15ZM248.42,378.3v26.89h13.04c2.97,0,5.46-.67,7.46-2.01,2-1.34,3.48-3,4.46-4.98.98-1.97,1.47-4.13,1.47-6.46s-.51-4.48-1.53-6.46c-1.02-1.97-2.51-3.63-4.46-4.97-1.96-1.34-4.42-2.01-7.4-2.01h-13.04Z"/>
  </g>
  <g>
    <polygon class="cls-11" points="115.21 511.72 179.85 449.88 198.3 472.08 221.76 338.68 98.44 404.5 141.89 424.15 115.21 511.72"/>
    <polygon class="cls-13" points="119.51 504.37 174.12 404.81 179.85 445.46 119.51 504.37"/>
    <polygon class="cls-7" points="174.12 404.81 119.51 504.37 146.82 421.82 174.12 404.81"/>
    <polygon class="cls-9" points="196.24 465.43 196.6 462.71 174.12 404.81 179.85 445.46 196.24 465.43"/>
    <polyline class="cls-8" points="174.12 404.81 215.43 347.15 196.6 462.71"/>
    <polygon class="cls-10" points="106.56 404.5 215.43 347.15 174.12 404.81 106.56 404.5"/>
    <polyline class="cls-12" points="174.12 404.81 146.82 421.82 106.56 404.5"/>
  </g>
</svg>